<svg width="36" height="36" viewBox="0 0 36 36" fill="none" xmlns="http://www.w3.org/2000/svg">
<path d="M18 3C9.71471 3 3 9.71472 3 18C3 26.2853 9.71471 33 18 33C26.2853 33 33 26.2853 33 18C33 9.71472 26.2853 3 18 3ZM17.509 24.5495C17.5102 24.3636 17.4378 24.1846 17.3075 24.0519C17.1773 23.9191 16.9998 23.8432 16.8138 23.8408C16.6278 23.8436 16.4505 23.9198 16.3205 24.0529C16.1906 24.186 16.1185 24.3651 16.1201 24.5511C16.1181 24.7372 16.19 24.9165 16.3201 25.0496C16.4501 25.1828 16.6277 25.2589 16.8138 25.2613C17.0001 25.2589 17.1778 25.1828 17.3081 25.0497C17.4384 24.9166 17.5106 24.7373 17.509 24.5511V24.5495ZM27.0285 18.7282C27.0275 18.8205 27.0447 18.9121 27.0791 18.9977C27.1135 19.0834 27.1645 19.1614 27.229 19.2273C27.2936 19.2933 27.3705 19.3459 27.4554 19.3821C27.5403 19.4183 27.6314 19.4375 27.7237 19.4384C27.9093 19.4353 28.0862 19.3591 28.216 19.2265C28.3459 19.0938 28.4182 18.9154 28.4174 18.7297C28.4188 18.6374 28.4019 18.5457 28.3678 18.4599C28.3336 18.3741 28.2829 18.2959 28.2184 18.2298C28.154 18.1636 28.0771 18.1109 27.9922 18.0745C27.9073 18.0382 27.8161 18.019 27.7237 18.018C27.5375 18.0204 27.3598 18.0965 27.2295 18.2296C27.0992 18.3627 27.0269 18.542 27.0285 18.7282ZM25.5721 18.7282C25.5721 17.5165 26.5375 16.5285 27.7252 16.5285C28.9114 16.5285 29.8754 17.5165 29.8754 18.7282C29.8754 19.9429 28.9099 20.9279 27.7237 20.9279C27.2432 20.9272 26.7773 20.7631 26.4024 20.4625L18.967 24.5826C18.9474 25.7808 17.991 26.7492 16.8138 26.7492C16.2917 26.744 15.789 26.5505 15.3982 26.2043C15.0073 25.8581 14.7545 25.3825 14.6862 24.8649L7.93694 21.3033C6.82733 20.7087 6.05105 19.0871 6.13063 17.5315C6.18318 16.5511 6.57658 15.7598 7.21321 15.3634C7.57057 15.1426 13.8243 11.976 18.497 9.61261L18.7462 9.48498C19.0107 9.32932 19.3117 9.24674 19.6186 9.24568C19.9254 9.24462 20.227 9.32514 20.4925 9.47898C21.53 10.0345 23.8949 11.1667 25.9805 12.1667L26.021 12.1847C26.985 12.6471 27.967 13.1156 28.6096 13.4309C28.6096 13.4309 28.9595 13.5676 28.9595 13.9129C28.9595 14.1637 28.7643 14.3273 28.5961 14.3934L17.1517 20.4805C16.539 20.7763 16.3393 20.7057 15.9805 20.5375C13.489 19.2101 11.0016 17.8752 8.51802 16.533L8.47447 16.5105C8.24925 16.3904 8.03904 16.3799 7.86186 16.4835C7.58559 16.6441 7.4024 17.0646 7.37538 17.6036C7.32132 18.6366 7.82583 19.7733 8.5015 20.1351L14.8859 23.5781C15.0588 23.2122 15.3315 22.9026 15.6725 22.6848C16.0136 22.467 16.4092 22.3499 16.8138 22.3468C17.521 22.3468 18.1772 22.7012 18.5811 23.2958L25.6862 19.4264C25.6121 19.2006 25.5741 18.9644 25.5736 18.7267L25.5721 18.7282Z" fill="#282828"/>
</svg>
