<svg width="333" height="62" viewBox="0 0 333 62" fill="none" xmlns="http://www.w3.org/2000/svg">
<g clip-path="url(#clip0_93_634)">
<path d="M99.284 14.585C100.538 15.7916 101.503 17.1993 102.172 18.8132C102.872 20.3969 103.222 22.0861 103.222 23.881V42.7796C103.222 44.5996 102.872 46.3039 102.172 47.8876C101.503 49.4713 100.538 50.884 99.284 52.1158C98.0298 53.3224 96.5557 54.2726 94.8617 54.9815C93.2577 55.6301 91.5787 55.9669 89.8248 55.9971H85.8822C84.0734 55.9971 82.3344 55.6602 80.6705 54.9815C79.0365 54.2777 77.5924 53.3224 76.3381 52.1158C75.0539 50.8539 74.0445 49.4311 73.315 47.8424C72.6154 46.2838 72.2656 44.5996 72.2656 42.7746V23.8759C72.2656 22.0861 72.6304 20.3969 73.36 18.8081C74.1195 17.1943 75.1089 15.7815 76.3381 14.58C77.5924 13.3482 79.0365 12.393 80.6705 11.7142C82.3344 11.0104 84.0684 10.6584 85.8822 10.6584H89.7798C91.5588 10.6886 93.2527 11.0405 94.8567 11.7142C96.5507 12.3879 98.0248 13.3432 99.279 14.58L99.284 14.585ZM92.843 20.4873C91.9935 19.7232 90.9591 19.3159 89.7349 19.2556H85.7923C84.5381 19.2556 83.4837 19.6679 82.6392 20.4873C81.8197 21.3119 81.415 22.3224 81.415 23.529V43.0863C81.415 44.318 81.8247 45.3336 82.6392 46.128C83.4837 46.9525 84.5381 47.3597 85.7923 47.3597H89.6449C90.8992 47.3597 91.9635 46.9475 92.843 46.128C93.7174 45.3336 94.1572 44.3231 94.1572 43.0863V23.529C94.1572 22.3274 93.7174 21.3119 92.843 20.4873Z" fill="black"/>
<path d="M135.182 15.4648C138.715 19.0193 140.479 23.1017 140.479 27.712C140.479 32.3222 138.71 36.3041 135.182 39.7379C132.059 42.7947 127.841 44.318 122.53 44.318H117.233V55.9921H108.213V35.9924H122.839C124.009 35.9924 125.043 35.8767 125.947 35.6404C126.997 35.374 127.916 34.8461 128.706 34.0517C130.43 32.3172 131.289 30.2056 131.289 27.7069C131.289 25.0373 130.43 22.8754 128.706 21.2314C127.916 20.4974 126.997 19.9846 125.947 19.688C124.953 19.3964 123.774 19.2355 122.4 19.2053H108.213V10.6584H122.445C127.816 10.6886 132.064 12.2874 135.187 15.4598L135.182 15.4648Z" fill="black"/>
<path d="M141.578 10.6635H170.65V19.0796H160.491V55.9971H151.557V19.0796H141.573V10.6635H141.578Z" fill="black"/>
<path d="M175.947 10.6635H184.966V55.992H175.947V10.6635Z" fill="black"/>
<path d="M241.796 11.8097L240.612 16.7418L231.327 55.3334C231.327 55.7758 231.038 55.992 230.453 55.992H222.968C222.528 55.992 222.178 55.7708 221.918 55.3334L213.249 19.341L212.199 14.9369L211.455 11.8097L211.15 10.6635H220.344L220.474 11.0606V11.1913L222.223 18.4612L226.73 37.0532L231.807 15.51L232.377 13.0867L232.772 11.2818L232.946 10.6635H242.056L241.791 11.8097H241.796Z" fill="black"/>
<path d="M245.604 10.6635H254.623V55.992H245.604V10.6635Z" fill="black"/>
<path d="M287.243 10.6635V19.0796H263.598V10.6635H287.243ZM287.243 28.7225V37.2694H272.752V47.5759H287.243V55.992H263.598V28.7225H287.243Z" fill="black"/>
<path d="M305.022 55.6853C304.937 55.8915 304.877 55.992 304.847 55.992H296.223V10.6635H304.323V36.1281L305.022 34.3684C305.662 32.8401 306.541 30.7838 307.651 28.1996C308.76 25.6154 309.884 22.9709 311.024 20.2711H319.998L305.022 55.6904V55.6853ZM333 55.992H324.375C324.345 55.992 324.27 55.8915 324.155 55.6853C324.011 55.3937 323.581 54.4385 322.866 52.8196C322.152 51.2058 321.317 49.2953 320.373 47.0932C319.423 44.8912 318.499 42.7595 317.595 40.7032L321.842 28.7627C322.252 29.7632 322.671 30.7838 323.111 31.8245C323.551 32.8652 323.901 33.7098 324.16 34.3584L324.905 36.118V10.6635H333.005V55.992H333Z" fill="black"/>
<path d="M28.2633 62.0002C13.3575 60.4216 0.920152 47.9432 0.0606814 32.7398C-1.89312 -1.76946 45.4577 -12.6692 59.2892 18.009C63.3917 27.1039 62.857 38.8433 57.6152 47.375C52.4534 55.7711 43.2891 61.4422 33.4501 61.9148L33.2502 61.4925L33.3952 53.4031L33.595 53.1366C43.2741 51.0904 45.6876 38.3053 37.6076 32.589C27.3039 25.299 14.2869 37.4456 21.1827 48.1091C22.9166 50.7888 25.2901 52.2568 28.2633 53.2573V62.0103V62.0002ZM51.2592 39.4717C51.8738 39.2153 51.9687 38.4411 52.1536 37.8629C57.8701 19.9496 39.7712 3.55474 22.4669 10.6084C12.6229 14.6204 5.83213 27.0687 9.7747 37.4556C10.0245 38.1092 10.4843 38.255 10.4693 38.8684C10.7741 38.8382 10.7791 38.5667 10.854 38.3556C11.2638 37.2545 11.3637 35.8368 11.7685 34.6503C13.6073 29.2758 18.2895 24.7158 23.5562 22.7751C36.2084 18.1045 49.3353 26.2844 51.2542 39.4767L51.2592 39.4717Z" fill="black"/>
</g>
<defs>
<clipPath id="clip0_93_634">
<rect width="333" height="62" fill="white"/>
</clipPath>
</defs>
</svg>
