<svg width="36" height="36" viewBox="0 0 36 36" fill="none" xmlns="http://www.w3.org/2000/svg">
<path d="M22.905 24.8802L25.3636 13.2791C25.5811 12.2564 24.9955 11.8561 24.3252 12.107L9.86387 17.6816C8.87591 18.0661 8.89296 18.6191 9.69682 18.87L13.3964 20.025L21.9873 14.6175C22.3889 14.3495 22.7577 14.5009 22.4564 14.7689L15.5066 21.0457L15.2386 24.8639C15.3836 24.8644 15.5267 24.8315 15.6568 24.7676C15.7869 24.7038 15.9005 24.6107 15.9886 24.4957L17.7961 22.755L21.5461 25.517C22.2327 25.9016 22.7182 25.7011 22.9023 24.8809L22.905 24.8802ZM33 18C33 20.9667 32.1203 23.8668 30.472 26.3335C28.8238 28.8003 26.4811 30.7229 23.7403 31.8582C20.9994 32.9935 17.9834 33.2906 15.0736 32.7118C12.1639 32.133 9.49119 30.7044 7.3934 28.6066C5.29562 26.5088 3.86701 23.8361 3.28823 20.9263C2.70945 18.0166 3.0065 15.0006 4.14181 12.2597C5.27713 9.51885 7.19971 7.17618 9.66645 5.52796C12.1332 3.87973 15.0333 3 18 3C21.9783 3 25.7936 4.58035 28.6066 7.3934C31.4196 10.2064 33 14.0217 33 18Z" fill="#282828"/>
</svg>
