<svg width="22" height="22" viewBox="0 0 22 22" fill="none" xmlns="http://www.w3.org/2000/svg">
<g id="Frame">
<path id="Vector" d="M9.65069 1.76917C10.0626 1.53723 10.5273 1.41537 11 1.41537C11.4727 1.41537 11.9375 1.53723 12.3494 1.76917L18.4544 5.20667C18.8793 5.44598 19.233 5.79402 19.4792 6.21508C19.7253 6.63615 19.855 7.11511 19.855 7.60284V14.3972C19.855 14.8849 19.7253 15.3639 19.4792 15.7849C19.233 16.206 18.8793 16.554 18.4544 16.7933L12.3494 20.2308C11.9375 20.4628 11.4727 20.5846 11 20.5846C10.5273 20.5846 10.0626 20.4628 9.65069 20.2308L3.54569 16.7933C3.1207 16.554 2.76701 16.206 2.52088 15.7849C2.27475 15.3639 2.14503 14.8849 2.14502 14.3972V7.60284C2.14503 7.11511 2.27475 6.63615 2.52088 6.21508C2.76701 5.79402 3.1207 5.44598 3.54569 5.20667L9.65069 1.76917ZM11.4501 3.36784C11.3127 3.29041 11.1577 3.24973 11 3.24973C10.8423 3.24973 10.6873 3.29041 10.5499 3.36784L4.44585 6.80442C4.30412 6.88409 4.18613 7.00002 4.10398 7.14032C4.02183 7.28062 3.97847 7.44025 3.97835 7.60284V14.3972C3.97847 14.5598 4.02183 14.7194 4.10398 14.8597C4.18613 15 4.30412 15.1159 4.44585 15.1956L10.5509 18.6331C10.6882 18.7105 10.8432 18.7512 11.0009 18.7512C11.1586 18.7512 11.3136 18.7105 11.451 18.6331L17.556 15.1956C17.6977 15.1159 17.8157 15 17.8979 14.8597C17.98 14.7194 18.0234 14.5598 18.0235 14.3972V7.60284C18.0234 7.44025 17.98 7.28062 17.8979 7.14032C17.8157 7.00002 17.6977 6.88409 17.556 6.80442L11.4501 3.36784ZM11 7.33334C11.9725 7.33334 12.9051 7.71965 13.5927 8.40728C14.2804 9.09491 14.6667 10.0275 14.6667 11C14.6667 11.9725 14.2804 12.9051 13.5927 13.5927C12.9051 14.2804 11.9725 14.6667 11 14.6667C10.0276 14.6667 9.09493 14.2804 8.40729 13.5927C7.71966 12.9051 7.33335 11.9725 7.33335 11C7.33335 10.0275 7.71966 9.09491 8.40729 8.40728C9.09493 7.71965 10.0276 7.33334 11 7.33334ZM11 9.16667C10.7593 9.16667 10.5209 9.21409 10.2984 9.30622C10.076 9.39836 9.8739 9.5334 9.70366 9.70364C9.53342 9.87388 9.39837 10.076 9.30624 10.2984C9.21411 10.5208 9.16669 10.7592 9.16669 11C9.16669 11.2408 9.21411 11.4792 9.30624 11.7016C9.39837 11.924 9.53342 12.1261 9.70366 12.2964C9.8739 12.4666 10.076 12.6016 10.2984 12.6938C10.5209 12.7859 10.7593 12.8333 11 12.8333C11.4862 12.8333 11.9526 12.6402 12.2964 12.2964C12.6402 11.9525 12.8334 11.4862 12.8334 11C12.8334 10.5138 12.6402 10.0475 12.2964 9.70364C11.9526 9.35982 11.4862 9.16667 11 9.16667Z" fill="black"/>
</g>
</svg>
